<svg width="93" height="87" viewBox="0 0 93 87" fill="none" xmlns="http://www.w3.org/2000/svg">
<path d="M91.0069 11.2286C90.0923 10.18 88.7755 9.57665 87.3869 9.57665H21.2171L20.2833 4.00304C19.9003 1.69507 17.9035 0 15.5621 0H4.78832C2.14038 0 0 2.14038 0 4.78832C0 7.43627 2.14038 9.57665 4.78832 9.57665H11.5063L20.4126 63.0335L20.6281 63.6273L20.8867 64.3503L21.4613 65.2074L21.9162 65.7437L22.8403 66.3662L23.3766 66.6774C23.932 66.9025 24.5162 67.0365 25.1339 67.0365H77.8103C80.4582 67.0365 82.5986 64.8962 82.5986 62.2482C82.5986 59.6003 80.4582 57.4599 77.8103 57.4599H29.1944L28.3996 52.6716H82.5986C84.9832 52.6716 87.0039 50.919 87.339 48.5632L92.1274 15.0449C92.3237 13.6659 91.9119 12.2725 91.0069 11.2286V11.2286ZM81.866 19.1533L80.5013 28.7299H63.4453V19.1533H81.866ZM58.657 19.1533V28.7299H44.292V19.1533H58.657ZM58.657 33.5183V43.0949H44.292V33.5183H58.657ZM39.5037 19.1533V28.7299H25.1387L24.43 28.8736L22.8116 19.1533H39.5037ZM25.2057 33.5183H39.5037V43.0949H26.8003L25.2057 33.5183ZM63.4453 43.0949V33.5183H79.8118L78.4471 43.0949H63.4453Z" fill="white"/>
<path d="M32.3212 86.1898C36.288 86.1898 39.5037 82.9741 39.5037 79.0073C39.5037 75.0406 36.288 71.8249 32.3212 71.8249C28.3544 71.8249 25.1387 75.0406 25.1387 79.0073C25.1387 82.9741 28.3544 86.1898 32.3212 86.1898Z" fill="white"/>
<path d="M75.4161 86.1898C79.3829 86.1898 82.5986 82.9741 82.5986 79.0073C82.5986 75.0406 79.3829 71.8249 75.4161 71.8249C71.4494 71.8249 68.2336 75.0406 68.2336 79.0073C68.2336 82.9741 71.4494 86.1898 75.4161 86.1898Z" fill="white"/>
</svg>
