<svg width="93" height="93" viewBox="0 0 93 93" fill="none" xmlns="http://www.w3.org/2000/svg">
<path d="M26.8845 72.9722C31.1267 72.9722 34.5658 69.5332 34.5658 65.2909C34.5658 61.0486 31.1267 57.6096 26.8845 57.6096C22.6422 57.6096 19.2032 61.0486 19.2032 65.2909C19.2032 69.5332 22.6422 72.9722 26.8845 72.9722Z" stroke="black" stroke-width="7.68128" stroke-linecap="round" stroke-linejoin="round"/>
<path d="M65.2909 72.9722C69.5332 72.9722 72.9722 69.5332 72.9722 65.2909C72.9722 61.0486 69.5332 57.6096 65.2909 57.6096C61.0486 57.6096 57.6096 61.0486 57.6096 65.2909C57.6096 69.5332 61.0486 72.9722 65.2909 72.9722Z" stroke="black" stroke-width="7.68128" stroke-linecap="round" stroke-linejoin="round"/>
<path d="M19.2032 65.2909H11.5219V49.9283M7.68129 19.2032H49.9283V65.2909M34.5658 65.2909H57.6096M72.9722 65.2909H80.6535V42.2471H49.9283M49.9283 23.0439H69.1316L80.6535 42.2471" stroke="black" stroke-width="7.68128" stroke-linecap="round" stroke-linejoin="round"/>
<path d="M11.5219 34.5658H26.8845" stroke="black" stroke-width="7.68128" stroke-linecap="round" stroke-linejoin="round"/>
</svg>
