<svg width="93" height="93" viewBox="0 0 93 93" fill="none" xmlns="http://www.w3.org/2000/svg">
<path d="M42.247 7.68129L70.2761 16.438C71.0578 16.682 71.741 17.1695 72.2261 17.8294C72.7111 18.4892 72.9725 19.2868 72.9722 20.1058V26.8845H80.6535C81.6721 26.8845 82.6489 27.2891 83.3692 28.0094C84.0895 28.7297 84.4941 29.7065 84.4941 30.7251V61.4503C84.4941 62.4689 84.0895 63.4458 83.3692 64.166C82.6489 64.8863 81.6721 65.2909 80.6535 65.2909L68.2866 65.2948C66.8003 67.2535 64.9952 68.9818 62.9097 70.4028L42.247 84.4941L21.5844 70.4066C18.4832 68.2922 15.9454 65.4522 14.1917 62.1336C12.438 58.815 11.5215 55.1182 11.5219 51.3647V20.1058C11.5224 19.2875 11.7842 18.4907 12.2692 17.8317C12.7541 17.1726 13.4369 16.6856 14.218 16.4418L42.247 7.68129ZM42.247 15.7236L19.2032 22.9286V51.3647C19.2026 53.7161 19.7418 56.0362 20.7793 58.1463C21.8167 60.2564 23.3246 62.1002 25.1869 63.5357L25.9128 64.0581L42.247 75.1998L56.7724 65.2909H38.4064C37.3878 65.2909 36.4109 64.8863 35.6907 64.166C34.9704 63.4458 34.5658 62.4689 34.5658 61.4503V30.7251C34.5658 29.7065 34.9704 28.7297 35.6907 28.0094C36.4109 27.2891 37.3878 26.8845 38.4064 26.8845H65.2909V22.9286L42.247 15.7236ZM42.247 46.0877V57.6096H76.8128V46.0877H42.247ZM42.247 38.4064H76.8128V34.5658H42.247V38.4064Z" fill="black"/>
</svg>
