<svg width="93" height="93" viewBox="0 0 93 93" fill="none" xmlns="http://www.w3.org/2000/svg">
<path d="M82.9963 72.3007C88.8569 67.0774 92.1754 60.1154 92.1754 52.8907C92.1754 45.2125 88.581 38.0317 82.0541 32.6699C75.7017 27.4532 67.2935 24.5798 58.3771 24.5798C49.4608 24.5798 41.0526 27.4532 34.7012 32.6703C28.1743 38.0317 24.5798 45.2125 24.5798 52.8907C24.5798 60.5688 28.1743 67.7496 34.7012 73.1114C41.0526 78.3285 49.4608 81.2017 58.3771 81.2017C59.5652 81.2017 60.7606 81.1492 61.946 81.045L63.9712 82.8003C70.9479 88.846 79.8702 92.1741 89.1019 92.1744H92.1744V85.6345L91.2746 84.7348C87.7247 81.1745 84.9117 76.9492 82.9963 72.3007V72.3007ZM67.9957 78.1562L63.9322 74.6342L62.5772 74.8003C61.1837 74.9707 59.7811 75.0562 58.3771 75.0563C43.1299 75.0563 30.7248 65.1128 30.7248 52.8907C30.7248 40.6685 43.1299 30.7248 58.3771 30.7248C73.6243 30.7248 86.0295 40.6683 86.0295 52.8907C86.0295 58.9799 82.9915 64.6648 77.4753 68.8979L75.7057 70.2557L76.5222 72.5668C78.1955 77.2869 80.655 81.6899 83.7967 85.5897C77.946 84.6131 72.4783 82.0409 67.9957 78.1562V78.1562Z" fill="black"/>
<path d="M8.48485 57.8925C11.3609 54.2518 13.6191 50.1632 15.169 45.7901L15.9794 43.4906L14.2114 42.1337C9.00967 38.1422 6.14496 32.7849 6.14496 27.0488C6.14496 15.5224 17.8605 6.14496 32.2611 6.14496C42.855 6.14496 51.9954 11.2203 56.0876 18.4925C56.8474 18.4556 57.6106 18.4349 58.3771 18.4349C59.9168 18.4349 61.4425 18.5096 62.954 18.659C61.3726 14.562 58.6262 10.822 54.8503 7.72076C48.7895 2.742 40.768 0 32.2611 0C23.7541 0 15.7326 2.742 9.6714 7.72076C3.43465 12.8439 0 19.708 0 27.0488C0 33.9235 3.14008 40.5475 8.68936 45.5303C6.8784 49.8884 4.23226 53.8501 0.900045 57.1921L0 58.092V64.5221H3.07248C8.75409 64.5214 14.3576 63.1983 19.4394 60.6575C18.8822 58.5454 18.5556 56.3791 18.4656 54.1966C15.3812 56.0044 12.0028 57.2554 8.48485 57.8925V57.8925Z" fill="black"/>
</svg>
